<?xml version="1.0" encoding="utf-8"?>
<!-- Generator: Adobe Illustrator 16.0.4, SVG Export Plug-In . SVG Version: 6.00 Build 0)  -->
<!DOCTYPE svg PUBLIC "-//W3C//DTD SVG 1.1//EN" "http://www.w3.org/Graphics/SVG/1.1/DTD/svg11.dtd">
<svg version="1.1" xmlns="http://www.w3.org/2000/svg" xmlns:xlink="http://www.w3.org/1999/xlink" x="0px" y="0px"
	 width="459.33px" height="392.138px" viewBox="0 0 459.33 392.138" enable-background="new 0 0 459.33 392.138"
	 xml:space="preserve">
<symbol  id="Eye" viewBox="-19.438 -19.596 38.875 39.191">
	<path id="Cornea_2_" fill="#8C8C8C" fill-opacity="0.1" d="M-11.383-13.004c6.287,6.286,16.479,6.286,22.765,0
		C17.669-19.291-17.668-19.291-11.383-13.004z"/>
	<path id="Eye_3_" fill="none" stroke="#A6A6A6" stroke-miterlimit="10" d="M13.391-13.233c-7.396-7.396-19.386-7.396-26.781,0
		c-7.396,7.396-7.396,19.386,0,26.782c7.396,7.396,19.386,7.396,26.781,0S20.786-5.837,13.391-13.233z"/>
	<path id="Pupil_2_" fill="#A6A6A6" d="M-5.356-17.377c2.958,2.958,7.755,2.958,10.713,0C8.315-20.335-8.314-20.335-5.356-17.377z"
		/>
</symbol>
<g id="_x31_">
	<g id="Symbols">
	</g>
</g>
<g id="_x32_">
</g>
<g id="_x33_">
</g>
<g id="_x34_">
</g>
<g id="_x35_">
</g>
<g id="_x36_">
</g>
<g id="_x37_">
</g>
<g id="_x38_">
</g>
<g id="_x39_">
	<g id="Background">
	</g>
</g>
<g id="_x31_0">
	<polygon id="Scene_5_" fill="#8C8C8C" fill-opacity="0.1" stroke="#A6A6A6" stroke-miterlimit="10" points="0.697,167.74 
		19.585,173.817 49.585,165.151 79.585,119.817 138.251,128.484 156.251,198.817 192.585,251.334 251.12,226.542 273.537,235.942 
		311.821,227.922 318.092,210.098 336.99,136.401 362.046,90.086 408.251,78.484 445.585,133.151 458.633,194.669 458.633,391.649 
		0.697,391.649 	"/>
	<path fill="none" stroke="#175E99" stroke-width="2" stroke-dasharray="6,8" d="M364.089,235.909
		c0-74.669-60.52-135.189-135.175-135.189S93.738,161.239,93.738,235.909c0,74.656,60.521,135.176,135.176,135.176
		S364.089,310.565,364.089,235.909z"/>
	<line fill="none" stroke="#175E99" stroke-width="2" stroke-dasharray="6,8" x1="93.392" y1="235.838" x2="364.27" y2="236.753"/>
	<line fill="none" stroke="#991717" stroke-width="2" x1="336.62" y1="154.219" x2="336.62" y2="317.596"/>
	<line fill="none" stroke="#991717" stroke-width="2" x1="120.028" y1="154.879" x2="120.028" y2="316.017"/>
	<line fill="none" stroke="#991717" stroke-width="2" x1="147.388" y1="161.967" x2="147.388" y2="342.258"/>
	<line fill="none" stroke="#991717" stroke-width="2" x1="174.177" y1="359.538" x2="174.177" y2="224.727"/>
	<line fill="none" stroke="#991717" stroke-width="2" x1="200.974" y1="247.782" x2="200.974" y2="368.19"/>
	<line fill="none" stroke="#991717" stroke-width="2" x1="256.197" y1="368.33" x2="256.197" y2="228.67"/>
	<line fill="none" stroke="#991717" stroke-width="2" x1="281.58" y1="234.304" x2="282.188" y2="359.538"/>
	<line fill="none" stroke="#991717" stroke-width="2" x1="309.245" y1="344.633" x2="309.245" y2="228.289"/>
	<line fill="none" stroke="#991717" stroke-width="2" x1="229.665" y1="235.066" x2="229.665" y2="371.084"/>
	<path fill="none" stroke="#1D9917" stroke-width="2" d="M120.028,236.753"/>
	<path fill="none" stroke="#1D9917" stroke-width="2" d="M120.028,154.879"/>
	<path fill="none" stroke="#1D9917" stroke-width="2" d="M318.995,205.435"/>
	<path fill="none" stroke="#1D9917" stroke-width="2" d="M260.025,104.323"/>
	<line fill="none" stroke="#1D9917" stroke-width="2" x1="147.388" y1="128.066" x2="147.388" y2="161.967"/>
	<line fill="none" stroke="#1D9917" stroke-width="2" x1="174.177" y1="224.727" x2="174.177" y2="112.269"/>
	<line fill="none" stroke="#1D9917" stroke-width="2" x1="200.974" y1="103.614" x2="200.974" y2="247.782"/>
	<line fill="none" stroke="#1D9917" stroke-width="2" x1="256.197" y1="228.67" x2="256.197" y2="104.323"/>
	<line fill="none" stroke="#1D9917" stroke-width="2" x1="282.188" y1="113.359" x2="281.58" y2="234.304"/>
	<line fill="none" stroke="#1D9917" stroke-width="2" x1="309.245" y1="228.289" x2="309.245" y2="128.066"/>
	<line fill="none" stroke="#1D9917" stroke-width="2" x1="229.665" y1="100.946" x2="229.665" y2="235.066"/>
	<rect x="196.153" y="230.246" fill="#808080" width="9.641" height="9.641"/>
	<rect x="169.356" y="231.018" fill="#808080" width="9.641" height="9.641"/>
	<rect x="142.567" y="230.247" fill="#808080" width="9.641" height="9.641"/>
	<rect x="115.208" y="230.247" fill="#808080" width="9.641" height="9.641"/>
	<rect x="251.377" y="231.017" fill="#808080" width="9.641" height="9.641"/>
	<rect x="277.367" y="231.475" fill="#808080" width="9.641" height="9.641"/>
	<rect x="304.425" y="231.017" fill="#808080" width="9.641" height="9.641"/>
	
		<use xlink:href="#Eye"  width="38.875" height="39.191" x="-19.438" y="-19.596" transform="matrix(1 0 0 -1 228.8301 32.4966)" overflow="visible"/>
	<rect x="331.8" y="231.017" fill="#808080" width="9.641" height="9.641"/>
	<circle id="Point_6_" cx="229.606" cy="236.051" r="4.283"/>
	<rect x="234.434" y="239.32" fill="none" width="26.667" height="27.334"/>
	<text transform="matrix(1 0 0 1 234.4336 253.8833)" font-family="'CMBX10'" font-size="21">p</text>
</g>
<g id="_x31_1">
</g>
<g id="_x31_2">
</g>
<g id="_x31_3">
</g>
<g id="_x31_4">
</g>
<g id="_x31_5">
</g>
</svg>
