<?xml version="1.0" encoding="utf-8"?>
<!-- Generator: Adobe Illustrator 16.0.4, SVG Export Plug-In . SVG Version: 6.00 Build 0)  -->
<!DOCTYPE svg PUBLIC "-//W3C//DTD SVG 1.1//EN" "http://www.w3.org/Graphics/SVG/1.1/DTD/svg11.dtd">
<svg version="1.1" xmlns="http://www.w3.org/2000/svg" xmlns:xlink="http://www.w3.org/1999/xlink" x="0px" y="0px"
	 width="459.33px" height="314.362px" viewBox="0 0 459.33 314.362" enable-background="new 0 0 459.33 314.362"
	 xml:space="preserve">
<g id="_x31_">
	<g id="Symbols">
	</g>
</g>
<g id="_x32_">
</g>
<g id="_x33_">
</g>
<g id="_x34_">
</g>
<g id="_x35_">
	<polygon id="Scene_2_" fill="#8C8C8C" fill-opacity="0.1" stroke="#A6A6A6" stroke-miterlimit="10" points="0.697,89.963 
		19.585,96.041 49.585,87.375 79.585,42.041 138.251,50.708 156.251,121.041 192.585,173.558 251.12,148.765 273.537,158.166 
		311.821,150.146 318.092,132.321 336.99,58.625 362.046,12.31 408.251,0.708 445.585,55.375 458.633,116.893 458.633,313.873 
		0.697,313.873 	"/>
	<g display="none">
		<g display="inline">
			<path fill="none" stroke="#026480" stroke-width="2" d="M350.371,106.619l2.763-1.169c-0.391-0.924-0.791-1.841-1.199-2.751"/>
			<path fill="none" stroke="#026480" stroke-width="2" stroke-dasharray="6.0329,8.0439" d="M348.421,95.458
				C316.332,34.04,241.908,6.571,176.969,34.054C110.775,62.068,78.708,136.918,103.005,203.7"/>
			<path fill="none" stroke="#026480" stroke-width="2" d="M104.437,207.459c0.368,0.926,0.748,1.852,1.139,2.775l2.763-1.17"/>
			
				<line fill="none" stroke="#026480" stroke-width="2" stroke-dasharray="6.065,8.0867" x1="115.785" y1="205.913" x2="346.647" y2="108.196"/>
		</g>
	</g>
	<circle id="Point_3_" cx="229.606" cy="158.275" r="4.283"/>
	<rect x="238.044" y="155.212" fill="none" width="26.667" height="27.334"/>
	<text transform="matrix(1 0 0 1 238.0439 169.7759)" font-family="'CMBX10'" font-size="21">p</text>
	<path fill="none" stroke="#175E99" stroke-width="2" stroke-dasharray="6,8" d="M364.089,158.132
		c0-74.669-60.52-135.189-135.175-135.189S93.738,83.463,93.738,158.132c0,74.656,60.521,135.176,135.176,135.176
		S364.089,232.789,364.089,158.132z"/>
	<g>
		<rect x="123.99" y="97.037" fill="#991717" width="9.641" height="9.641"/>
		<rect x="330.604" y="97.037" fill="#991717" width="9.641" height="9.641"/>
		<rect x="299.604" y="215.005" fill="#991717" width="9.641" height="9.641"/>
		<rect x="299.604" y="146.39" fill="#808080" width="9.641" height="9.641"/>
		<rect x="142.104" y="162.548" fill="#991717" width="9.641" height="9.641"/>
		<rect x="166.104" y="262.57" fill="#991717" width="9.641" height="9.641"/>
		<rect x="212.925" y="200.57" fill="#991717" width="9.641" height="9.641"/>
		<rect x="266.964" y="162.548" fill="#991717" width="9.641" height="9.641"/>
		<rect x="241.737" y="248.07" fill="#991717" width="9.641" height="9.641"/>
		<rect x="137.284" y="219.826" fill="#991717" width="9.641" height="9.641"/>
		<rect x="104.104" y="141.569" fill="#991717" width="9.641" height="9.641"/>
		<rect x="151.745" y="133.401" fill="#991717" width="9.641" height="9.641"/>
		<rect x="346.284" y="171.75" fill="#991717" width="9.641" height="9.641"/>
	</g>
	<g>
		<rect x="276.604" y="56.64" fill="#1D9917" width="9.641" height="9.641"/>
		<rect x="190.104" y="144.341" fill="#1D9917" width="9.641" height="9.641"/>
		<rect x="185.284" y="48.909" fill="#1D9917" width="9.641" height="9.641"/>
		<rect x="266.964" y="115.093" fill="#1D9917" width="9.641" height="9.64"/>
		<rect x="208.104" y="101.857" fill="#1D9917" width="9.641" height="9.641"/>
		<rect x="241.737" y="77.357" fill="#1D9917" width="9.641" height="9.641"/>
	</g>
	<rect x="315.323" y="210.21" fill="none" width="26.667" height="27.334"/>
	<text transform="matrix(1 0 0 1 315.3232 224.7837)"><tspan x="0" y="0" font-family="'CMBX10'" font-size="21">s</tspan><tspan x="9.512" y="3" font-family="'CMBX10'" font-size="12">z</tspan></text>
	<rect x="315.323" y="141.228" fill="none" width="26.667" height="27.334"/>
	<text transform="matrix(1 0 0 1 315.3232 155.7935)"><tspan x="0" y="0" font-family="'CMBX10'" font-size="21">s</tspan><tspan x="9.512" y="3" font-family="'CMBX10'" font-size="12">d</tspan></text>
	<g>
		<g>
			<path fill="none" stroke="#012F2F" stroke-miterlimit="10" d="M304.425,157.527c0-0.992,0-1.496,0-1.496
				S304.425,156.535,304.425,157.527"/>
			<path fill="none" stroke="#012F2F" stroke-miterlimit="10" stroke-dasharray="2.946,2.946" d="M304.425,160.47
				c0,4.412,0,12.053,0,22.637c0,12.805,0,23.846,0,28.924"/>
			<path fill="none" stroke="#012F2F" stroke-miterlimit="10" d="M304.425,213.509c0,0.971,0,1.496,0,1.496
				S304.425,214.48,304.425,213.509"/>
			<path fill="none" stroke="#012F2F" stroke-miterlimit="10" stroke-dasharray="2.946,2.946" d="M304.425,210.566
				c0-5.555,0-15.773,0-27.459c0-11.871,0-20.039,0-24.104"/>
		</g>
	</g>
</g>
<g id="_x36_">
</g>
<g id="_x37_">
</g>
<g id="_x38_">
</g>
<g id="_x39_">
	<g id="Background">
	</g>
</g>
<g id="_x31_0">
</g>
<g id="_x31_1">
</g>
<g id="_x31_2">
</g>
<g id="_x31_3">
</g>
<g id="_x31_4">
</g>
<g id="_x31_5">
</g>
</svg>
