<?xml version="1.0" encoding="utf-8"?>
<!-- Generator: Adobe Illustrator 16.0.4, SVG Export Plug-In . SVG Version: 6.00 Build 0)  -->
<!DOCTYPE svg PUBLIC "-//W3C//DTD SVG 1.1//EN" "http://www.w3.org/Graphics/SVG/1.1/DTD/svg11.dtd">
<svg version="1.1" xmlns="http://www.w3.org/2000/svg" xmlns:xlink="http://www.w3.org/1999/xlink" x="0px" y="0px"
	 width="459.33px" height="392.138px" viewBox="0 0 459.33 392.138" enable-background="new 0 0 459.33 392.138"
	 xml:space="preserve">
<symbol  id="Eye" viewBox="-19.438 -19.596 38.875 39.191">
	<path id="Cornea_2_" fill="#8C8C8C" fill-opacity="0.1" d="M-11.383-13.004c6.287,6.286,16.479,6.286,22.765,0
		C17.669-19.291-17.668-19.291-11.383-13.004z"/>
	<path id="Eye_3_" fill="none" stroke="#A6A6A6" stroke-miterlimit="10" d="M13.391-13.233c-7.396-7.396-19.386-7.396-26.781,0
		c-7.396,7.396-7.396,19.386,0,26.782c7.396,7.396,19.386,7.396,26.781,0S20.786-5.837,13.391-13.233z"/>
	<path id="Pupil_2_" fill="#A6A6A6" d="M-5.356-17.377c2.958,2.958,7.755,2.958,10.713,0C8.315-20.335-8.314-20.335-5.356-17.377z"
		/>
</symbol>
<g id="_x31_">
	<g id="Symbols">
	</g>
</g>
<g id="_x32_">
</g>
<g id="_x33_">
</g>
<g id="_x34_">
</g>
<g id="_x35_">
</g>
<g id="_x36_">
</g>
<g id="_x37_">
</g>
<g id="_x38_">
</g>
<g id="_x39_">
	<g id="Background">
		<polygon id="Scene_4_" fill="#8C8C8C" fill-opacity="0.1" stroke="#A6A6A6" stroke-miterlimit="10" points="0.697,248 
			26.949,261.986 70.282,303.138 101.629,305.126 142.704,255.45 163.156,252.987 198.918,289.468 223.896,287.481 243.722,244.41 
			264.711,180.406 294.282,125.869 346.013,114.324 401.618,140.749 435.222,179.565 458.633,240.939 458.633,391.649 
			0.697,391.649 		"/>
	</g>
	<g>
		<g>
			<polyline fill="none" stroke="#A6A6A6" stroke-width="2" stroke-dasharray="6,8" points="458.633,275.744 40.971,275.744 
				40.971,128.703 			"/>
			<g>
				<path fill="#A6A6A6" d="M40.971,122.668c1.054,2.84,2.852,6.363,4.756,8.547l-4.756-1.72l-4.755,1.72
					C38.12,129.031,39.918,125.508,40.971,122.668z"/>
			</g>
		</g>
	</g>
	<g>
		<polyline opacity="0.1" fill="#175E99" points="354.373,95.02 40.971,275.744 283.62,22.665 		"/>
		<g>
			<line fill="none" stroke="#012F2F" stroke-width="2" x1="354.373" y1="95.02" x2="351.774" y2="96.519"/>
			
				<line fill="none" stroke="#012F2F" stroke-width="2" stroke-dasharray="5.9627,7.9503" x1="344.887" y1="100.49" x2="47.014" y2="272.259"/>
			<polyline fill="none" stroke="#012F2F" stroke-width="2" points="43.569,274.245 40.971,275.744 43.047,273.579 			"/>
			
				<line fill="none" stroke="#012F2F" stroke-width="2" stroke-dasharray="6.0106,8.0142" x1="48.594" y1="267.793" x2="278.771" y2="27.723"/>
			<line fill="none" stroke="#012F2F" stroke-width="2" x1="281.544" y1="24.831" x2="283.62" y2="22.665"/>
		</g>
	</g>
	<g>
		<g>
			<line fill="none" stroke="#175E99" stroke-width="3" x1="40.404" y1="276.172" x2="99.048" y2="332.23"/>
			<g>
				<path fill="#175E99" d="M105.592,338.485c-4.172-1.801-9.855-3.504-14.197-3.702l6.795-3.374l3.062-6.938
					C101.646,328.798,103.604,334.4,105.592,338.485z"/>
			</g>
		</g>
	</g>
	<text transform="matrix(1 0 0 1 112.9668 334.2778)" display="none" fill="#026480" font-family="'CMMI10'" font-size="24">t</text>
	<g>
		<g>
			<line fill="none" stroke="#175E99" stroke-width="3" x1="40.404" y1="276.172" x2="96.461" y2="217.529"/>
			<g>
				<path fill="#175E99" d="M102.717,210.985c-1.801,4.171-3.504,9.855-3.702,14.197l-3.374-6.794l-6.938-3.063
					C93.03,214.93,98.632,212.973,102.717,210.985z"/>
			</g>
		</g>
	</g>
	<text transform="matrix(1 0 0 1 86.4844 204.8687)" fill="#175E99" font-family="'CMMI10'" font-size="24">n</text>
	<circle id="Point_5_" cx="40.971" cy="275.752" r="4.283"/>
	<rect x="23.354" y="278.319" fill="none" width="26.667" height="27.334"/>
	<text transform="matrix(1 0 0 1 23.3535 292.8833)" font-family="'CMBX10'" font-size="21">p</text>
	<rect x="160.555" y="165.584" fill="none" width="26.667" height="27.334"/>
	<text transform="matrix(1 0 0 1 160.5527 182.2319)" font-family="'CMMI10'" font-size="24">h</text>
	
		<use xlink:href="#Eye"  width="38.875" height="39.191" x="-19.438" y="-19.596" transform="matrix(1 0 0 -1 40.4043 87.9941)" overflow="visible"/>
	<path fill="none" stroke="#175E99" stroke-width="2" stroke-dasharray="6,8" d="M229.606,282.03"/>
	<path fill="none" stroke="#948976" stroke-width="2" stroke-dasharray="6,8" d="M40.971,275.744"/>
	<rect x="180.145" y="269.812" fill="#991717" width="9.641" height="9.639"/>
	<rect x="215.904" y="282.202" fill="#991717" width="9.641" height="9.641"/>
	<rect x="324.229" y="113.026" fill="#991717" width="9.641" height="9.641"/>
	<rect x="359.992" y="117.848" fill="#991717" width="9.641" height="9.641"/>
	<rect x="396.798" y="135.928" fill="#991717" width="9.641" height="9.641"/>
	<rect x="431.846" y="177.693" fill="#991717" width="9.641" height="9.641"/>
	<rect x="108.146" y="287.023" fill="#1D9917" width="9.641" height="9.641"/>
	<rect x="144.467" y="250.027" fill="#1D9917" width="9.641" height="9.641"/>
	<rect x="252.706" y="198.631" fill="#1D9917" width="9.641" height="9.641"/>
	<rect x="286.481" y="126.686" fill="#1D9917" width="9.641" height="9.641"/>
	<rect x="72.186" y="297.923" fill="#1D9917" width="9.641" height="9.641"/>
	<path fill="none" stroke="#012F2F" d="M161.688,200.199c0,0,0-18.127-20.828-20.058"/>
</g>
<g id="_x31_0">
</g>
<g id="_x31_1">
</g>
<g id="_x31_2">
</g>
<g id="_x31_3">
</g>
<g id="_x31_4">
</g>
<g id="_x31_5">
</g>
</svg>
