<?xml version="1.0" encoding="utf-8"?>
<!-- Generator: Adobe Illustrator 16.0.4, SVG Export Plug-In . SVG Version: 6.00 Build 0)  -->
<!DOCTYPE svg PUBLIC "-//W3C//DTD SVG 1.1//EN" "http://www.w3.org/Graphics/SVG/1.1/DTD/svg11.dtd">
<svg version="1.1" xmlns="http://www.w3.org/2000/svg" xmlns:xlink="http://www.w3.org/1999/xlink" x="0px" y="0px"
	 width="459.33px" height="314.362px" viewBox="0 0 459.33 314.362" enable-background="new 0 0 459.33 314.362"
	 xml:space="preserve">
<symbol  id="Background_1_" viewBox="-229.468 -133.982 458.936 267.965">
	<polygon id="Scene_14_" fill="#8C8C8C" fill-opacity="0.1" stroke="#A6A6A6" stroke-miterlimit="10" points="-228.968,44.157 
		-210.08,38.08 -180.08,46.746 -150.08,92.08 -91.414,83.413 -73.414,13.079 -37.08,-39.435 21.455,-14.643 43.872,-24.042 
		82.156,-16.022 88.427,1.8 107.325,75.496 132.381,121.811 178.586,133.413 215.92,78.746 228.968,17.228 228.968,-133.482 
		-228.968,-133.482 	"/>
</symbol>
<g id="_x31_">
	<g id="Symbols">
	</g>
</g>
<g id="_x32_">
</g>
<g id="_x33_">
</g>
<g id="_x34_">
</g>
<g id="_x35_">
</g>
<g id="_x36_">
	
		<use xlink:href="#Background_1_"  width="458.936" height="267.965" id="XMLID_3_" x="-229.468" y="-133.982" transform="matrix(1 0 0 -1 229.665 180.3901)" overflow="visible"/>
	<g>
		<rect x="123.99" y="143.027" fill="#991717" width="9.641" height="9.639"/>
		<rect x="330.604" y="143.027" fill="#991717" width="9.641" height="9.639"/>
		<rect x="128.811" y="220.542" fill="#991717" width="9.641" height="9.641"/>
		<rect x="104.104" y="187.558" fill="#991717" width="9.641" height="9.641"/>
		<rect x="147.494" y="179.39" fill="#991717" width="9.641" height="9.641"/>
	</g>
	<g>
		<rect x="276.604" y="102.63" fill="#1D9917" width="9.641" height="9.641"/>
		<rect x="190.104" y="190.33" fill="#1D9917" width="9.641" height="9.641"/>
		<rect x="202.288" y="94.898" fill="#1D9917" width="9.641" height="9.641"/>
		<rect x="280.008" y="156.996" fill="#1D9917" width="9.641" height="9.641"/>
		<rect x="170.925" y="141.163" fill="#1D9917" width="9.641" height="9.641"/>
		<rect x="241.737" y="123.348" fill="#1D9917" width="9.641" height="9.641"/>
	</g>
	<g>
		<g>
			<line fill="none" stroke="#175E99" stroke-width="3" x1="229.606" y1="203.798" x2="194.94" y2="122.297"/>
			<g>
				<path fill="#175E99" d="M191.397,113.967c3.122,3.301,7.672,7.109,11.583,9.006l-7.574,0.418l-5.554,5.166
					C191.199,124.424,191.611,118.505,191.397,113.967z"/>
			</g>
		</g>
	</g>
	<text transform="matrix(1 0 0 1 180.9473 106.6079)" fill="#175E99" font-family="'CMMI10'" font-size="24">n</text>
	<g>
		<g>
			<path fill="none" stroke="#175E99" stroke-width="2" d="M350.371,152.897l2.763-1.169c-0.391-0.924-0.791-1.84-1.199-2.75"/>
			<path fill="none" stroke="#175E99" stroke-width="2" stroke-dasharray="6.0329,8.0439" d="M348.422,141.739
				c-32.09-61.418-106.514-88.887-171.453-61.403c-66.193,28.014-98.261,102.851-73.963,169.631"/>
			<path fill="none" stroke="#175E99" stroke-width="2" d="M104.436,253.726c0.369,0.927,0.749,1.852,1.14,2.775l2.763-1.169"/>
			
				<line fill="none" stroke="#175E99" stroke-width="2" stroke-dasharray="6.065,8.0867" x1="115.785" y1="252.18" x2="346.647" y2="154.473"/>
		</g>
	</g>
	<circle id="Point_4_" cx="229.606" cy="204.263" r="4.283"/>
	<rect x="238.044" y="201.201" fill="none" width="26.667" height="27.334"/>
	<text transform="matrix(1 0 0 1 238.043 215.7642)" font-family="'CMBX10'" font-size="21">p</text>
</g>
<g id="_x37_">
</g>
<g id="_x38_">
</g>
<g id="_x39_">
	<g id="Background">
	</g>
</g>
<g id="_x31_0">
</g>
<g id="_x31_1">
</g>
<g id="_x31_2">
</g>
<g id="_x31_3">
</g>
<g id="_x31_4">
</g>
<g id="_x31_5">
</g>
</svg>
